# xmcd
# Copyright (c) 1998 CDDB Inc.
#
# Track frame offsets:
#	150
#	14873
#	32615
#	41740
#	56118
#	67625
#	82578
#	98265
#	118780
#	133873
#
# Disc length: 2018 seconds
#
# Revision: 1
# Processed by: cddbd v1.4PL0 Copyright (c) Steve Scherf et al.
# Submitted via: AudioCatalyst 2.10full
#
DISCID=7907e00a
DTITLE=Fred Bellewood - Hot Wind
DYEAR=1900
DGENRE=
TTITLE0=One Time
TTITLE1=Riders On The Storm
TTITLE2=Little Ship Of My Live
TTITLE3=Dead Drivers Lament
TTITLE4=My Love Is On The Run
TTITLE5=Stage Song
TTITLE6=Jackie-Jackie
TTITLE7=Lady Of The Night
TTITLE8=Soon
TTITLE9=Hot Wind
EXTD=
EXTT0=
EXTT1=
EXTT2=
EXTT3=
EXTT4=
EXTT5=
EXTT6=
EXTT7=
EXTT8=
EXTT9=
PLAYORDER=
